<svg xmlns="http://www.w3.org/2000/svg" width="25" height="32" viewBox="0 0 25 32">
  <g fill="none" fill-rule="evenodd">
    <polygon points="0 0 25 0 25 32 0 32"/>
    <path fill="#274548" d="M15.6616015,22.9817713 L11.8539455,22.9817713 L11.8539455,18.4375387 C14.8306854,18.3995729 17.2410289,15.9979661 17.2410289,13.0501945 L17.2410289,10.981873 C19.8859516,11.6723079 21.8416947,14.0549317 21.8416947,16.8809417 C21.8416947,20.2447098 19.069319,22.9817713 15.6616015,22.9817713 M11.7822533,10.7787561 L14.0827235,10.7787561 L14.0827235,13.0501945 C14.0827235,14.3025229 13.0504648,15.3213617 11.7822533,15.3213617 C10.5137671,15.3213617 9.48205771,14.3025229 9.48205771,13.0501945 C9.48205771,11.7981373 10.5137671,10.7787561 11.7822533,10.7787561 M17.2410289,7.79545936 L17.2410289,7.66068084 L17.1045114,7.66068084 C16.3516052,3.3176668 12.5131848,0 7.902081,0 L0,0 L0,16.8803993 L0,24.3395903 L3.15830532,24.3395903 L3.15830532,16.8803993 L3.15830532,3.11807527 L7.902081,3.11807527 C10.7645527,3.11807527 13.177643,5.04971992 13.876986,7.66068084 L11.7822533,7.66068084 C8.77227679,7.66068084 6.32375239,10.0785587 6.32375239,13.0501945 C6.32375239,14.8915348 7.26399235,16.5199956 8.69564023,17.4924619 L8.69564023,24.5410802 L8.69564023,26.0998466 L8.69564023,32 L11.8539455,32 L11.8539455,26.0998466 L15.6616015,26.0998466 C20.811084,26.0998466 25,21.9642884 25,16.8809417 C25,12.3285735 21.640352,8.53904628 17.2410289,7.79545936"/>
  </g>
</svg>
